<?xml version="1.0" encoding="UTF-8"?>
<svg width="70px" height="70px" viewBox="0 0 70 70" version="1.1" xmlns="http://www.w3.org/2000/svg" xmlns:xlink="http://www.w3.org/1999/xlink">
    <!-- Generator: Sketch 46.1 (44463) - http://www.bohemiancoding.com/sketch -->
    <title>11</title>
    <desc>Created with Sketch.</desc>
    <defs>
        <polygon id="path-1" points="70 70 70 -1.75421635e-13 -2.50909428e-13 -1.75421635e-13 -2.49873214e-13 70"></polygon>
    </defs>
    <g id="Template" stroke="none" stroke-width="1" fill="none" fill-rule="evenodd">
        <g id="发起流程-#5" transform="translate(-587.000000, -863.000000)">
            <g id="Page-1" transform="translate(587.000000, 863.000000)">
                <mask id="mask-2" fill="white">
                    <use xlink:href="#path-1"></use>
                </mask>
                <g id="Clip-2"></g>
                <path d="M45.3659032,38.3585282 C47.380482,38.3585282 49,39.988522 49,41.9812501 C49,43.9843751 47.380482,45.6028169 45.3659032,45.6028169 L38.0873133,45.6028169 L38.0873133,50.3784332 C38.0873133,52.3827134 36.4677953,54 34.4636128,54 C32.4605855,54 30.829516,52.3827134 30.8433778,50.3784332 L30.8433778,45.6028169 L23.6213902,45.6028169 C21.6287592,45.6028169 20,43.9843751 20,41.9812501 C20,39.988522 21.6287592,38.3585282 23.6213902,38.3585282 L30.8433778,38.3585282 L30.8433778,34.7358062 L23.6213902,34.7358062 C21.6287592,34.7358062 20,33.1173644 20,31.1142394 C20,29.1111144 21.6287592,27.4915174 23.6213902,27.4915174 L30.050946,27.4915174 L23.7611631,21.2025829 C22.3391755,19.7805259 22.3391755,17.4874446 23.7611631,16.0665428 C25.1819956,14.6444857 27.4772754,14.6444857 28.8865565,16.0665428 L34.9649472,22.14523 L41.0456483,16.0665428 C42.4549293,14.6560378 44.7617606,14.6560378 46.1687313,16.0665428 C47.5768572,17.4989966 47.5768572,19.7932332 46.1687313,21.2025829 L39.8928102,27.4915174 L45.3659032,27.4915174 C47.380482,27.4915174 49,29.1111144 49,31.1142394 C49,33.1173644 47.380482,34.7358062 45.3659032,34.7358062 L38.0873133,34.7358062 L38.0873133,38.3585282 L45.3659032,38.3585282 Z M35,-2.93768644e-13 C15.6695,-2.93768644e-13 -2.49873852e-13,15.6695 -2.49873852e-13,35 C-2.49873852e-13,54.3293333 15.6695,70 35,70 C54.3293333,70 70,54.3293333 70,35 C70,15.6695 54.3293333,-2.93768644e-13 35,-2.93768644e-13 L35,-2.93768644e-13 Z" id="Fill-1" fill="#E2B968" mask="url(#mask-2)"></path>
            </g>
        </g>
    </g>
</svg>