<?xml version="1.0" encoding="UTF-8"?>
<svg width="70px" height="70px" viewBox="0 0 70 70" version="1.1" xmlns="http://www.w3.org/2000/svg" xmlns:xlink="http://www.w3.org/1999/xlink">
    <!-- Generator: Sketch 46.1 (44463) - http://www.bohemiancoding.com/sketch -->
    <title>1</title>
    <desc>Created with Sketch.</desc>
    <defs></defs>
    <g id="Template" stroke="none" stroke-width="1" fill="none" fill-rule="evenodd">
        <g id="发起流程-#5" transform="translate(-97.000000, -1053.000000)" fill="#97C56B">
            <g id="Page-1" transform="translate(97.000000, 1053.000000)">
                <polygon id="Fill-1" points="24 37 36 37 36 35 24 35"></polygon>
                <polygon id="Fill-2" points="24 43 30 43 30 41 24 41"></polygon>
                <polygon id="Fill-3" points="24 30 41 30 41 28 24 28"></polygon>
                <g id="Group-6">
                    <path d="M52.4475611,37 L46,31.5307882 L48.6149932,28 L55,33.5628079 L52.4475611,37 Z M40.7414818,50 L34,44.8668869 L43.9552228,33 L51,38.1377934 L40.7414818,50 Z M32,55 L32.7189128,48 L39,52.6928922 L32,55 Z M27.0078924,51.5655875 L18.4831254,52 L17.425248,51.5269471 L17,49.4801734 L17,18.5209659 L17.3087417,16.0432925 L19.02954,15.2236463 L23.7993085,15.2236463 L25.67273,16.6392924 L26.0653563,17.8582234 L27.9003307,18.8816102 L33.7256464,18.8008165 L37.48181,18.8008165 L39.0453247,17.7376183 L40.103202,15.5362828 L41.5117634,15 L45.3028788,15 L47.372031,15.2599449 L48,16.2868445 L47.5689266,26.7385044 L46.8675586,27.246685 L27.5135298,50.8606918 L27.0078924,51.5655875 Z M34.9998833,0.000116666667 C15.67055,0.000116666667 -0.000116666667,15.6707833 -0.000116666667,35.0001167 C-0.000116666667,54.32945 15.67055,70.0001167 34.9998833,70.0001167 C54.3303833,70.0001167 69.9998833,54.32945 69.9998833,35.0001167 C69.9998833,15.6707833 54.3303833,0.000116666667 34.9998833,0.000116666667 L34.9998833,0.000116666667 Z" id="Fill-4"></path>
                </g>
            </g>
        </g>
    </g>
</svg>