<?xml version="1.0" encoding="utf-8"?>
<!-- Generator: Adobe Illustrator 21.1.0, SVG Export Plug-In . SVG Version: 6.00 Build 0)  -->
<svg version="1.1" id="图层_1" xmlns="http://www.w3.org/2000/svg" xmlns:xlink="http://www.w3.org/1999/xlink" x="0px" y="0px"
	 viewBox="0 0 1024 1024" style="enable-background:new 0 0 1024 1024;" xml:space="preserve">
<style type="text/css">
	.st0{fill:#B01928;}
</style>
<g>
	<path class="st0" d="M377.6,576.2v-18.9c-4.7-2.4-7.9-7.3-7.9-12.9c0-8.1,6.6-14.6,14.7-14.6c8.1,0,14.7,6.5,14.7,14.6
		c0,5.7-3.3,10.7-8.2,13v5.4h68.5l89.9-153.1c-12.8-1.8-26.1-2.7-39.8-2.7c-104.5,0-189.2,55.1-189.2,123.1
		c0,68,84.7,123.1,189.2,123.1c79.5,0,147.6-31.9,175.6-77.1H382H377.6z"/>
	<path class="st0" d="M658.7,452.7l-64.6,118.6h102.8c4.3-10.9,6.6-22.4,6.6-34.3C703.5,504.8,686.6,475.3,658.7,452.7z"/>
	<path class="st0" d="M512,64C264.6,64,64,264.6,64,512s200.6,448,448,448s448-200.6,448-448S759.4,64,512,64z M512,699
		c-130.9,0-237.1-73.4-237.1-164.1c0-90.6,106.2-164,237.1-164c21.3,0,41.9,1.9,61.5,5.6l14.5-24.8l-10.5-15.9L730.9,325l-53.6,92.2
		c44.3,29.8,71.9,71.5,71.9,117.6C749.1,625.5,643,699,512,699z"/>
</g>
</svg>
