<?xml version="1.0" encoding="UTF-8"?>
<svg width="70px" height="70px" viewBox="0 0 70 70" version="1.1" xmlns="http://www.w3.org/2000/svg" xmlns:xlink="http://www.w3.org/1999/xlink">
    <!-- Generator: Sketch 46.1 (44463) - http://www.bohemiancoding.com/sketch -->
    <title>10</title>
    <desc>Created with Sketch.</desc>
    <defs>
        <polygon id="path-1" points="69.9995333 70 0 70 0 0.000466666667 69.9995333 0.000466666667"></polygon>
    </defs>
    <g id="Template" stroke="none" stroke-width="1" fill="none" fill-rule="evenodd">
        <g id="发起流程-#5" transform="translate(-89.000000, -223.000000)">
            <g id="Page-1" transform="translate(89.000000, 223.000000)">
                <mask id="mask-2" fill="white">
                    <use xlink:href="#path-1"></use>
                </mask>
                <g id="Clip-2"></g>
                <path d="M36.7587405,54 C26.4403326,54 18,45.4502054 18,35.0005867 C18,25.025044 25.2689975,16.9504987 34.8829823,16 C32.3028011,19.3255721 30.6610782,23.3634314 30.6610782,27.8753667 C30.6610782,38.3249853 39.1025693,46.87478 49.4209773,46.87478 L52,46.87478 C48.7165542,51.1485038 42.621209,54 36.7587405,54 L36.7587405,54 Z M40.3997628,30.1604743 L41.1198102,28 L41.8410439,30.1604743 L44,30.1604743 L42.0806643,31.6 L42.8007117,34 L40.8801898,32.5604743 L38.9584816,34 L39.6797153,31.6 L38,30.1604743 L40.3997628,30.1604743 Z M50.3676547,43 L49.1040042,41.9472042 L47.4212168,43 L48.0525221,41.3146944 L47,40.4741222 L48.4737389,40.4741222 L49.1040042,39 L49.5262611,40.4741222 L51,40.4741222 L49.7373895,41.3146944 L50.3676547,43 Z M45.8228455,20.8228455 L46.9994187,18 L48.1759919,20.8228455 L51,20.8228455 L48.645691,22.7062927 L49.8222642,26 L47.2331057,23.8828659 L44.4114228,26 L45.3519837,22.7062927 L43,20.8228455 L45.8228455,20.8228455 Z M34.9995333,0.000466666667 C15.6702,0.000466666667 -0.000466666667,15.6699667 -0.000466666667,35.0004667 C-0.000466666667,54.3309667 15.6702,70.0004667 34.9995333,70.0004667 C54.3300333,70.0004667 69.9995333,54.3309667 69.9995333,35.0004667 C69.9995333,15.6699667 54.3300333,0.000466666667 34.9995333,0.000466666667 L34.9995333,0.000466666667 Z" id="Fill-1" fill="#97C56B" mask="url(#mask-2)"></path>
            </g>
        </g>
    </g>
</svg>