<?xml version="1.0" encoding="UTF-8"?>
<svg width="70px" height="70px" viewBox="0 0 70 70" version="1.1" xmlns="http://www.w3.org/2000/svg" xmlns:xlink="http://www.w3.org/1999/xlink">
    <!-- Generator: Sketch 46.1 (44463) - http://www.bohemiancoding.com/sketch -->
    <title>9</title>
    <desc>Created with Sketch.</desc>
    <defs>
        <polygon id="path-1" points="69.9995333 8.28966525e-15 0 8.28966525e-15 0 69.9995333 69.9995333 69.9995333"></polygon>
    </defs>
    <g id="Template" stroke="none" stroke-width="1" fill="none" fill-rule="evenodd">
        <g id="发起流程-#5" transform="translate(-340.000000, -223.000000)">
            <g id="Page-1" transform="translate(340.000000, 223.000000)">
                <path d="M51.7249866,22 L45.0443862,22 L45.0443862,24.3991727 C45.0443862,24.8801891 44.7271018,25.1992909 44.2488249,25.1992909 L42.6577021,25.1992909 C42.1817754,25.1992909 41.8621407,24.8801891 41.8621407,24.3991727 L41.8621407,22 L29.135509,22 L29.135509,24.3991727 C29.135509,24.8801891 28.8182246,25.1992909 28.3411228,25.1992909 L26.75,25.1992909 C26.2717231,25.1992909 25.9532635,24.8801891 25.9532635,24.3991727 L25.9532635,22 L19.2738383,22 C18.635744,22 18,22.6393854 18,23.2799527 L18,28.7200473 C18,29.3606146 18.635744,30 19.2738383,30 L51.7249866,30 C52.3630808,30 53,29.3606146 53,28.7200473 L53,23.2799527 C53,22.6393854 52.3630808,22 51.7249866,22" id="Fill-1" fill="#F4A523"></path>
                <path d="M42.4445927,35.4694195 L33.9814094,43.928805 L28.5539331,38.7596948 C27.9147127,38.1326451 27.1174563,38.1326451 26.4794153,38.7596948 C25.8401949,39.3855875 25.8401949,40.1688211 26.4794153,40.7958707 L33.8221939,48 L44.5214693,37.5067524 C45.1595102,36.8797028 45.1595102,36.0964692 44.5214693,35.4694195 C43.8822489,34.8435268 43.0838131,34.8435268 42.4445927,35.4694195" id="Fill-3" fill="#F4A523"></path>
                <g id="Group-7">
                    <mask id="mask-2" fill="white">
                        <use xlink:href="#path-1"></use>
                    </mask>
                    <g id="Clip-6"></g>
                    <path d="M55,51.7826609 C55,53.0492106 54.0541777,54 52.7915282,54 L16.207307,54 C14.9446575,54 14,53.0492106 14,51.7826609 L14,21.3842982 C14,20.1177484 14.9446575,19.166959 16.207307,19.166959 L25.0376999,19.166959 L25.0376999,16.7929092 C25.0376999,16.3180993 25.3533623,16 25.8274383,16 L27.4045854,16 C27.8774965,16 28.1919941,16.3180993 28.1919941,16.7929092 L28.1919941,19.166959 L40.8068411,19.166959 L40.8068411,16.7929092 C40.8068411,16.3180993 41.1236683,16 41.5954146,16 L43.1725617,16 C43.6466377,16 43.9611353,16.3180993 43.9611353,16.7929092 L43.9611353,19.166959 L52.7915282,19.166959 C54.0541777,19.166959 55,20.1177484 55,21.3842982 L55,51.7826609 Z M34.9995333,-0.000466666667 C15.6702,-0.000466666667 -0.000466666667,15.6702 -0.000466666667,34.9995333 C-0.000466666667,54.3312 15.6702,69.9995333 34.9995333,69.9995333 C54.3300333,69.9995333 69.9995333,54.3312 69.9995333,34.9995333 C69.9995333,15.6702 54.3300333,-0.000466666667 34.9995333,-0.000466666667 L34.9995333,-0.000466666667 Z" id="Fill-5" fill="#F4A523" mask="url(#mask-2)"></path>
                </g>
            </g>
        </g>
    </g>
</svg>