<?xml version="1.0" encoding="UTF-8"?>
<svg width="65px" height="65px" viewBox="0 0 65 65" version="1.1" xmlns="http://www.w3.org/2000/svg" xmlns:xlink="http://www.w3.org/1999/xlink">
    <!-- Generator: Sketch 46.1 (44463) - http://www.bohemiancoding.com/sketch -->
    <title>7</title>
    <desc>Created with Sketch.</desc>
    <defs>
        <polygon id="path-1" points="3.20649612e-20 1 3.20649612e-20 66 65 66 65 1"></polygon>
    </defs>
    <g id="Template" stroke="none" stroke-width="1" fill="none" fill-rule="evenodd">
        <g id="发起流程-#5" transform="translate(-342.000000, -600.000000)">
            <g id="Page-1" transform="translate(342.000000, 599.000000)">
                <path d="M32.0011882,19 C29.2421578,19 27,21.1622241 27,23.824305 L27,27 L37,27 L37,23.824305 C37,21.1622241 34.7602186,19 32.0011882,19" id="Fill-1" fill="#F8B551"></path>
                <path d="M32,34 C30.3504012,34 29,35.338047 29,37.0005733 C29,38.6504873 30.3504012,40 32,40 C33.6495988,40 35,38.6504873 35,37.0005733 C35,35.3506593 33.6495988,34 32,34" id="Fill-3" fill="#F8B551"></path>
                <g id="Group-7" transform="translate(0.000000, -0.000000)">
                    <mask id="mask-2" fill="white">
                        <use xlink:href="#path-1"></use>
                    </mask>
                    <g id="Clip-6"></g>
                    <path d="M51,36.0957611 L50.9882196,36.0957611 C50.9882196,37.2640293 50.1529865,38.1271268 48.6250637,38.5336328 L47.1878502,38.9273264 C42.6665181,40.1584924 35.8715614,42 31.9922631,42 L31.9027318,42 C28.2955616,41.974375 21.8987837,40.1340322 17.6719626,38.9145139 L16.3490194,38.5336328 C14.4111373,37.9873539 14,36.9076085 14,36.0957611 L14,28.7041058 C14,27.3459795 15.1179636,26.2417738 16.4915627,26.2417738 L23.3760507,26.2417738 L23.3760507,23.0165148 C23.3760507,18.0510837 27.4603286,14 32.4941098,14 C37.527891,14 41.6121689,18.0382711 41.6121689,23.0165148 L41.6121689,26.2417738 L48.5084373,26.2417738 C49.8843925,26.2417738 51,27.3459795 51,28.7041058 L51,36.0957611 Z M51,48.460522 C51,49.8611991 49.8816804,51 48.5076438,51 L16.4923562,51 C15.1183196,51 14,49.8611991 14,48.460522 L14,40 C14,40.837283 14.4112682,41.9508573 16.3497675,42.5142514 L17.673132,42.9070656 C21.9012994,44.164792 28.3001147,46.0639948 31.9084337,46.0892214 L31.9979935,46.0892214 C35.8643863,46.0892214 42.6756481,44.1900186 47.1984203,42.9202796 L48.6360915,42.5142514 C50.1515383,42.0950093 51,41.2048706 51,40 L51,48.460522 Z M32.5,1 C14.5471008,1 7.91932004e-13,15.546836 7.91932004e-13,33.4994085 C7.91932004e-13,51.451981 14.5471008,66 32.5,66 C50.4528992,66 65,51.451981 65,33.4994085 C65,15.546836 50.4528992,1 32.5,1 L32.5,1 Z" id="Fill-5" fill="#F8B551" mask="url(#mask-2)"></path>
                </g>
            </g>
        </g>
    </g>
</svg>