<?xml version="1.0" encoding="UTF-8"?>
<svg width="100px" height="100px" viewBox="0 0 100 100" version="1.1" xmlns="http://www.w3.org/2000/svg" xmlns:xlink="http://www.w3.org/1999/xlink">
    <!-- Generator: Sketch 46.1 (44463) - http://www.bohemiancoding.com/sketch -->
    <title>Page 1</title>
    <desc>Created with Sketch.</desc>
    <defs>
        <polygon id="path-1" points="0 100 100 100 100 0 0 0"></polygon>
    </defs>
    <g id="Template" stroke="none" stroke-width="1" fill="none" fill-rule="evenodd">
        <g id="工作台-#5" transform="translate(-77.000000, -650.000000)">
            <g id="Page-1" transform="translate(77.000000, 650.000000)">
                <path d="M71.2174,67.7033 L59.2174,67.7033 C58.6644,67.7033 58.2174,67.2563 58.2174,66.7033 L58.2174,55.7033 C58.2174,55.1513 58.6644,54.7033 59.2174,54.7033 L71.2174,54.7033 C71.7694,54.7033 72.2174,55.1513 72.2174,55.7033 L72.2174,66.7033 C72.2174,67.2563 71.7694,67.7033 71.2174,67.7033 Z" id="Fill-1" fill="#FFEB99"></path>
                <path d="M59.2174,59.8283 L71.2174,59.8283" id="Stroke-3" stroke="#F2D336" stroke-width="2"></path>
                <path d="M62.2174,52.8283 L62.2174,56.8283" id="Stroke-5" stroke="#F2D336" stroke-width="2"></path>
                <path d="M68.2174,52.8283 L68.2174,56.8283" id="Stroke-7" stroke="#F2D336" stroke-width="2"></path>
                <mask id="mask-2" fill="white">
                    <use xlink:href="#path-1"></use>
                </mask>
                <g id="Clip-10"></g>
                <polygon id="Stroke-9" stroke="#F2D336" stroke-width="2" mask="url(#mask-2)" points="58.217 67.828 72.217 67.828 72.217 54.578 58.217 54.578"></polygon>
                <path d="M49.9996,50.6076 C55.3496,50.6076 58.9036,43.4926 59.4236,41.6896 C59.4606,41.5586 60.2616,41.1526 60.3276,41.0346 C63.2236,35.9096 60.0586,35.3276 60.0586,35.3276 C60.0586,35.3276 60.2066,32.6276 59.5356,30.0906 C59.5356,30.0906 57.8386,23.7956 49.9996,23.7956 C42.1616,23.7956 40.4646,30.0906 40.4646,30.0906 C39.7926,32.6276 39.9416,35.3276 39.9416,35.3276 C39.9416,35.3276 36.7766,35.9096 39.6726,41.0346 C39.7386,41.1526 40.5396,41.5586 40.5766,41.6896 C41.0966,43.4926 44.6496,50.6076 49.9996,50.6076 Z" id="Stroke-11" stroke="#F2D336" stroke-width="2" mask="url(#mask-2)"></path>
                <path d="M54.9107,49.0783 C54.9107,49.0783 55.3657,49.9633 57.2147,50.9223" id="Stroke-12" stroke="#F2D336" stroke-width="2" mask="url(#mask-2)"></path>
                <path d="M45.0894,49.0783 C45.0894,49.0783 43.0504,51.0983 39.1684,52.3233 C33.6694,54.0583 28.9584,57.3253 28.5484,65.9473 C28.5484,65.9473 40.6704,68.1793 53.2174,67.8283" id="Stroke-13" stroke="#F2D336" stroke-width="2" mask="url(#mask-2)"></path>
                <path d="M98.9996,50.0002 C98.9996,77.0622 77.0626,99.0002 49.9996,99.0002 C22.9366,99.0002 0.9996,77.0622 0.9996,50.0002 C0.9996,22.9392 22.9366,1.0002 49.9996,1.0002 C77.0626,1.0002 98.9996,22.9392 98.9996,50.0002 Z" id="Stroke-14" stroke="#F2D336" stroke-width="2" mask="url(#mask-2)"></path>
            </g>
        </g>
    </g>
</svg>