<svg xmlns="http://www.w3.org/2000/svg" viewBox="0 0 100 100"><defs><style>.cls-1{fill:none;}.cls-1,.cls-2{stroke:#b41ec2;stroke-linecap:round;stroke-linejoin:round;stroke-width:2px;}.cls-2{fill:#f092ff;}</style></defs><title>资源 5</title><g id="图层_2" data-name="图层 2"><g id="图层_1-2" data-name="图层 1"><circle class="cls-1" cx="50" cy="50" r="49"/><path class="cls-1" d="M65.18,41.27l8.21,5.43V72.45a.91.91,0,0,1-.88.94h-45a.91.91,0,0,1-.88-.94V46.7l8.24-5.48"/><polyline class="cls-1" points="31.12 43.71 50 58.81 68.88 43.72"/><path class="cls-2" d="M65.15,46.67,50,58,34.85,46.67V27.55a.91.91,0,0,1,.88-.94H64.26a.91.91,0,0,1,.88.94V46.67"/><line class="cls-1" x1="41.73" y1="32.09" x2="58.27" y2="32.09"/><line class="cls-1" x1="41.73" y1="39.21" x2="58.27" y2="39.21"/><line class="cls-1" x1="45.63" y1="46.89" x2="54.37" y2="46.89"/></g></g></svg>