<?xml version="1.0" encoding="UTF-8"?>
<svg width="70px" height="70px" viewBox="0 0 70 70" version="1.1" xmlns="http://www.w3.org/2000/svg" xmlns:xlink="http://www.w3.org/1999/xlink">
    <!-- Generator: Sketch 46.1 (44463) - http://www.bohemiancoding.com/sketch -->
    <title>14</title>
    <desc>Created with Sketch.</desc>
    <defs>
        <polygon id="path-1" points="69.99965 70 0 70 0 0.000466666667 69.99965 0.000466666667"></polygon>
    </defs>
    <g id="Template" stroke="none" stroke-width="1" fill="none" fill-rule="evenodd">
        <g id="发起流程-#5" transform="translate(-584.000000, -1253.000000)">
            <g id="14" transform="translate(584.000000, 1253.000000)">
                <mask id="mask-2" fill="white">
                    <use xlink:href="#path-1"></use>
                </mask>
                <g id="Clip-2"></g>
                <path d="M55,51 L15,51 L15,49.6217398 C15,46.1027529 19.5765893,43.1157464 23.0002346,43.1157464 L31.0004692,43.2589272 L31.0004692,32.1630014 C27.7034952,30.6578575 25.4081633,27.35888 25.4081633,23.5221016 C25.4081633,18.2628284 29.7032606,14 35,14 C40.2979123,14 44.5930096,18.2628284 44.5930096,23.5221016 C44.5930096,27.35888 42.2988506,30.6578575 38.9995308,32.1630014 L38.9995308,43.1308793 L47.0009383,43.3334277 C50.4198921,43.3334277 55,45.2844109 55,48.7940853 L55,51 Z M15,56 L55,56 L55,53 L15,53 L15,56 Z M34.99965,0.000466666667 C15.6703167,0.000466666667 -0.00035,15.6699667 -0.00035,35.0004667 C-0.00035,54.3298 15.6703167,70.0004667 34.99965,70.0004667 C54.33015,70.0004667 69.99965,54.3298 69.99965,35.0004667 C69.99965,15.6699667 54.33015,0.000466666667 34.99965,0.000466666667 L34.99965,0.000466666667 Z" id="Fill-1" fill="#FF8462" mask="url(#mask-2)"></path>
            </g>
        </g>
    </g>
</svg>