<?xml version="1.0" encoding="UTF-8"?>
<svg width="70px" height="70px" viewBox="0 0 70 70" version="1.1" xmlns="http://www.w3.org/2000/svg" xmlns:xlink="http://www.w3.org/1999/xlink">
    <!-- Generator: Sketch 46.1 (44463) - http://www.bohemiancoding.com/sketch -->
    <title>13</title>
    <desc>Created with Sketch.</desc>
    <defs></defs>
    <g id="Template" stroke="none" stroke-width="1" fill="none" fill-rule="evenodd">
        <g id="发起流程-#5" transform="translate(-89.000000, -864.000000)" fill="#FF8462">
            <g id="Page-1" transform="translate(89.000000, 864.000000)">
                <g id="Group-3">
                    <path d="M55.5563595,48.4901259 C52.9333288,48.4901259 50.6255776,47.1317586 49.2999977,45.0889698 C46.2093222,52.0914869 39.1676922,57 30.9868371,57 C19.9661235,57 11,48.0955359 11,37.1506109 L11,30.001432 C11,29.279763 11.5895373,28.6942799 12.3162035,28.6942799 L18.5303717,28.6942799 C18.2795546,27.6013006 18.2268127,26.0881237 19.1363175,24.5656349 C20.0469944,23.0361623 19.2078121,21.8454084 19.1984358,21.8337686 C18.7753285,21.2471216 18.9101134,20.430006 19.4996506,20.0086445 C20.091532,19.5884469 20.9131336,19.7199769 21.3374129,20.3066239 C21.4135957,20.4113823 23.1798634,22.9139441 21.4018753,25.8972306 C20.7408434,27.0053417 21.0596389,28.165832 21.2706065,28.6942799 L28.7212793,28.6942799 C28.1880001,27.1287238 28.0872045,24.9369453 29.5909347,22.6497202 C31.456826,19.8107675 29.7901819,18.139289 29.7726013,18.1241572 C29.2522145,17.6189889 29.2416661,16.7913976 29.7503325,16.2745894 C30.2589988,15.7577813 31.0934929,15.7473055 31.6115356,16.2524738 C32.7378682,17.3442891 34.2228458,20.3846107 31.7955462,24.0790904 C30.2871278,26.3721354 31.2669552,28.1739799 31.6209119,28.6942799 L38.9297676,28.6942799 C38.0483918,26.7492656 37.7553813,23.8707375 40.0561003,20.7826927 C42.8115717,17.089377 40.4581108,14.5111564 40.1826808,14.2283087 C39.6763586,13.7161565 39.6787026,12.8897291 40.1908851,12.3822328 C40.7030676,11.8759006 41.5258413,11.8712446 42.0415399,12.3764129 C43.5511303,13.8604903 45.5201614,17.8494574 42.1739807,22.3401009 C39.6236167,25.7610447 41.6266369,28.2601146 42.0192711,28.6942799 L49.6562986,28.6942799 C50.3829648,28.6942799 50.9736741,29.279763 50.9736741,30.001432 L50.9736741,35.2847474 C52.2383078,34.2988544 53.8275971,33.7063874 55.5563595,33.7063874 C59.6608515,33.7063874 63,37.0225728 63,41.0988386 C63,45.1751044 59.6608515,48.4901259 55.5563595,48.4901259 M35.0001167,0.000116666667 C15.6707833,0.000116666667 0.000116666667,15.6696167 0.000116666667,34.99895 C0.000116666667,54.3306167 15.6707833,70.0001167 35.0001167,70.0001167 C54.32945,70.0001167 70.0001167,54.3306167 70.0001167,34.99895 C70.0001167,15.6696167 54.32945,0.000116666667 35.0001167,0.000116666667" id="Fill-1"></path>
                </g>
                <path d="M60,41.5 C60,43.9853416 57.9853416,46 55.5,46 C53.0146584,46 51,43.9853416 51,41.5 C51,39.0146584 53.0146584,37 55.5,37 C57.9853416,37 60,39.0146584 60,41.5" id="Fill-4"></path>
            </g>
        </g>
    </g>
</svg>