<?xml version="1.0" encoding="UTF-8"?>
<svg width="70px" height="70px" viewBox="0 0 70 70" version="1.1" xmlns="http://www.w3.org/2000/svg" xmlns:xlink="http://www.w3.org/1999/xlink">
    <!-- Generator: Sketch 46.1 (44463) - http://www.bohemiancoding.com/sketch -->
    <title>6</title>
    <desc>Created with Sketch.</desc>
    <defs>
        <polygon id="path-1" points="69.9997667 8.28966525e-15 0 8.28966525e-15 0 69.9995333 69.9997667 69.9995333 69.9997667 0"></polygon>
    </defs>
    <g id="Template" stroke="none" stroke-width="1" fill="none" fill-rule="evenodd">
        <g id="发起流程-#5" transform="translate(-89.000000, -410.000000)">
            <g id="Page-1" transform="translate(89.000000, 410.000000)">
                <g id="Group-3">
                    <mask id="mask-2" fill="white">
                        <use xlink:href="#path-1"></use>
                    </mask>
                    <g id="Clip-2"></g>
                    <path d="M47.4934629,54 C42.7974551,54 39,50.1938169 39,45.4958383 C39,40.7978597 42.805775,37 47.5005943,37 C49.752919,37 51.9196672,37.9001189 53.5099629,39.4934602 C55.1026358,41.0856124 56,43.2520809 56,45.5041617 C55.9940572,50.1938169 52.1882822,54 47.4934629,54 L47.4934629,54 Z M15,54 C15,49.7497399 20.8359015,46.1739397 28.723232,45.1622498 L28.723232,41.5631924 C26.3499188,39.8107595 25.9580597,38.7444152 24.8093061,33.9487729 C24.1468776,34.7104474 23.1928873,34.7418447 22.3182018,32.1870372 C22.0289725,31.3393109 21.6382797,29.6101353 21.6382797,29.6101353 C21.3968665,28.3170329 22.2633882,27.2751086 23.5754164,27.2751086 L24.1690363,27.2751086 C23.8016684,19.628129 26.4653773,16 33.3007527,16 C40.1326294,16 42.7870083,19.628129 42.4289704,27.2820858 L43.021424,27.2820858 C44.332286,27.2820858 45.2011402,28.3251729 44.959727,29.6182753 C44.959727,29.6182753 44.5702004,31.346288 44.2786386,32.19634 C43.4039531,34.7581247 42.4441316,34.7185874 41.7887006,33.95575 C41.6009348,34.7267275 41.4364939,35.3883959 41.2802168,35.9802926 C38.3272786,37.9664606 36.5557489,41.2829427 36.5557489,44.8343228 C36.5557489,48.7275843 38.6643241,52.1301181 41.7887006,54 L15,54 Z M34.9986,-0.000466666667 C15.6716,-0.000466666667 -0.000233333333,15.6713667 -0.000233333333,34.9995333 C-0.000233333333,54.3288667 15.6716,69.9995333 34.9986,69.9995333 C54.3302667,69.9995333 69.9997667,54.3288667 69.9997667,34.9995333 C69.9997667,15.6713667 54.3302667,-0.000466666667 34.9986,-0.000466666667 L34.9986,-0.000466666667 Z" id="Fill-1" fill="#31A386" mask="url(#mask-2)"></path>
                </g>
                <polygon id="Fill-4" fill="#31A386" points="46.6873329 46.3265306 43.8777855 43.5714286 42 45.4070008 44.8166782 48.1632653 44.8095474 48.1632653 46.6790136 50 54 42.8390597 52.1305338 41"></polygon>
            </g>
        </g>
    </g>
</svg>