<?xml version="1.0" encoding="utf-8"?>
<!-- Generator: Adobe Illustrator 19.0.0, SVG Export Plug-In . SVG Version: 6.00 Build 0)  -->
<svg version="1.1" id="图层_1" xmlns="http://www.w3.org/2000/svg" xmlns:xlink="http://www.w3.org/1999/xlink" x="0px" y="0px"
	 viewBox="-152 274.9 291 293" style="enable-background:new -152 274.9 291 293;" xml:space="preserve">
<style type="text/css">
	.st0{fill:#54E7C6;}
	.st1{fill:#FFFFFF;}
</style>
<circle class="st0" cx="-6.5" cy="421.4" r="145.5"/>
<g>
	<path class="st1" d="M-14.5,391.9h-64.6c-6.6,0-11.9-5.3-11.9-11.9v-29.2c0-6.6,5.3-11.9,11.9-11.9h64.6c6.6,0,11.9,5.3,11.9,11.9
		v29.2C-2.6,386.6-8,391.9-14.5,391.9z M-79.1,346.7c-2.3,0-4.2,1.9-4.2,4.2v29.2c0,2.3,1.9,4.2,4.2,4.2h64.6c2.3,0,4.2-1.9,4.2-4.2
		v-29.2c0-2.3-1.9-4.2-4.2-4.2C-14.5,346.7-79.1,346.7-79.1,346.7z M66.1,448.1H1.5c-6.6,0-11.9-5.3-11.9-11.9v-18
		c0-6.6,5.3-11.9,11.9-11.9h64.6c6.6,0,11.9,5.3,11.9,11.9v18C78,442.8,72.7,448.1,66.1,448.1z M1.5,414c-2.3,0-4.2,1.9-4.2,4.2v18
		c0,2.3,1.9,4.2,4.2,4.2h64.6c2.3,0,4.2-1.9,4.2-4.2v-18c0-2.3-1.9-4.2-4.2-4.2C66.1,414,1.5,414,1.5,414z M66.1,503.8H1.5
		c-6.6,0-11.9-5.3-11.9-11.9v-18c0-6.6,5.3-11.9,11.9-11.9h64.6c6.6,0,11.9,5.3,11.9,11.9v18C78,498.5,72.7,503.8,66.1,503.8z
		 M1.5,469.8c-2.3,0-4.2,1.9-4.2,4.2v18c0,2.3,1.9,4.2,4.2,4.2h64.6c2.3,0,4.2-1.9,4.2-4.2v-18c0-2.3-1.9-4.2-4.2-4.2H1.5z"/>
	<path class="st1" d="M-35.7,482.3h-30.6v-91.6h7.7v83.9h22.9V482.3z"/>
	<path class="st1" d="M-62.4,417.1h26.7v7.7h-26.7V417.1z"/>
</g>
</svg>
