<?xml version="1.0" encoding="utf-8"?>
<!-- Generator: Adobe Illustrator 19.0.0, SVG Export Plug-In . SVG Version: 6.00 Build 0)  -->
<svg version="1.1" id="图层_1" xmlns="http://www.w3.org/2000/svg" xmlns:xlink="http://www.w3.org/1999/xlink" x="0px" y="0px"
	 viewBox="-152 274.9 291 293" style="enable-background:new -152 274.9 291 293;" xml:space="preserve">
<style type="text/css">
	.st0{fill:#FFB24F;}
	.st1{fill:#FFFFFF;}
</style>
<circle class="st0" cx="-6.5" cy="421.4" r="145.5"/>
<g>
	<path class="st1" d="M19.5,338.6v10.5c14.8,2.5,26,15.3,26,30.8c0,11.5-6.3,21.6-15.6,27v12.2c21.1,7.9,36.4,31,36.4,54.3
		c0,7-6.2,12.3-15.6,15.9v10.7c15.2-4.2,26-11.3,26-21.4c0-25.5-15.3-53.1-37.2-65.7c10-7.6,16.4-19.6,16.4-33.1
		C55.9,358.7,40,341.2,19.5,338.6L19.5,338.6z"/>
	<path class="st1" d="M-27.3,348.7c17.2,0,31.2,14,31.2,31.2c0,9.8-4.5,18.9-12.3,24.8c-2.8,2.1-4.3,5.5-4.1,8.9
		c0.2,3.5,2.2,6.6,5.2,8.3c18.5,10.7,32,34.5,32,56.7c0,6.3-20.3,15.5-52,15.5s-52-9.2-52-15.5c0-22.2,13.4-46,32-56.7
		c3-1.7,5-4.9,5.2-8.3c0.2-3.5-1.3-6.8-4.1-8.9c-7.8-5.9-12.3-15-12.3-24.8C-58.5,362.7-44.5,348.7-27.3,348.7 M-27.3,338.3
		c-23,0-41.6,18.6-41.6,41.6c0,13.5,6.4,25.5,16.4,33.1c-21.9,12.6-37.2,40.2-37.2,65.7c0,17.2,31.2,25.8,62.4,25.8
		s62.4-8.6,62.4-25.8c0-25.5-15.3-53.1-37.2-65.7c10-7.6,16.4-19.6,16.4-33.1C14.3,356.9-4.3,338.3-27.3,338.3L-27.3,338.3z"/>
</g>
</svg>
