<?xml version="1.0" encoding="UTF-8"?>
<svg width="70px" height="70px" viewBox="0 0 70 70" version="1.1" xmlns="http://www.w3.org/2000/svg" xmlns:xlink="http://www.w3.org/1999/xlink">
    <!-- Generator: Sketch 46.1 (44463) - http://www.bohemiancoding.com/sketch -->
    <title>15</title>
    <desc>Created with Sketch.</desc>
    <defs>
        <polygon id="path-1" points="0.000233333333 70 70 70 70 0.000466666667 0.000233333333 0.000466666667"></polygon>
    </defs>
    <g id="Template" stroke="none" stroke-width="1" fill="none" fill-rule="evenodd">
        <g id="发起流程-#5" transform="translate(-340.000000, -1253.000000)">
            <g id="15" transform="translate(340.000000, 1253.000000)">
                <path d="M39,45.4944179 L43.1279826,45.4944179 L43.1279826,51.6477051 C43.1279826,52.0186071 43.2768309,52.3561049 43.5188514,52.6014531 C43.7597356,52.8468013 44.0926557,53 44.4619358,53 C45.1970871,53 45.7936164,52.3941166 45.7936164,51.6477051 L45.7936164,45.4944179 L50,45.4944179 L44.5005681,40 L39,45.4944179 Z" id="Fill-1" fill="#74A5E7"></path>
                <path d="M23.5151106,35 L38.486063,35 C39.177337,35 39.7700252,34.7531286 40.2641277,34.2605233 C40.7547092,33.7667804 41,33.1717861 41,32.4778157 C41,31.7849829 40.7547092,31.1979522 40.2641277,30.7178612 C39.7700252,30.2377702 39.177337,30 38.486063,30 L23.5151106,30 C22.8238366,30 22.2311484,30.2377702 21.7393932,30.7178612 C21.2464644,31.1979522 21,31.7849829 21,32.4778157 C21,33.1717861 21.2464644,33.7667804 21.7393932,34.2605233 C22.2311484,34.7531286 22.8238366,35 23.5151106,35" id="Fill-3" fill="#74A5E7"></path>
                <g id="Group-7">
                    <mask id="mask-2" fill="white">
                        <use xlink:href="#path-1"></use>
                    </mask>
                    <g id="Clip-6"></g>
                    <path d="M53.2848477,49.4911693 C52.8096794,50.5783164 52.1605226,51.5285549 51.3457769,52.3465257 C50.5298313,53.1621761 49.5770949,53.8107516 48.4887674,54.2864509 C47.4016399,54.7598298 46.2317179,55 44.9778015,55 C43.755083,55 42.59956,54.7598298 41.5100327,54.2864509 C40.4205053,53.8107516 39.4689687,53.1621761 38.6530231,52.3465257 C37.8370775,51.5285549 37.1903206,50.5783164 36.7139524,49.4911693 C36.2375842,48.4040222 36,47.2321774 36,45.9814361 C36,44.7550599 36.2375842,43.5971381 36.7139524,42.5088307 C37.1903206,41.4216836 37.8370775,40.4702849 38.6530231,39.6557948 C39.4689687,38.8378239 40.4205053,38.1904087 41.5100327,37.7147093 C42.59956,37.2401702 43.755083,37 44.9778015,37 C46.2317179,37 47.4016399,37.2401702 48.4887674,37.7147093 C49.5770949,38.1904087 50.5298313,38.8378239 51.3457769,39.6557948 C52.1605226,40.4702849 52.8084794,41.4216836 53.2848477,42.5088307 C53.760016,43.5971381 54,44.7550599 54,45.9814361 C54,47.2321774 53.760016,48.4040222 53.2848477,49.4911693 L53.2848477,49.4911693 Z M21.146208,53 C21.1086787,53 21.0734949,53 21.0371384,52.9964577 L17.4953088,52.9964577 C17.1129789,52.9964577 16.7294762,52.8464985 16.4374511,52.5418572 C16.1465989,52.2348542 16,51.838112 16,51.4390081 L16,46.1975234 L16.0023456,46.1975234 L16.0023456,15.5586303 C16.0023456,15.161888 16.1465989,14.763965 16.4397967,14.4546005 C16.7306489,14.1523207 17.1141517,14 17.4964816,14 L35.9867084,14 L35.9867084,19.191892 C35.9867084,19.7197009 36.0664582,20.2864755 36.2259578,20.8957583 C36.3866302,21.5074026 36.6317435,22.0670926 36.9636435,22.5748282 C37.2967162,23.0884677 37.7283034,23.5159103 38.258405,23.8642405 C38.7931978,24.2125708 39.4300235,24.3849647 40.1747459,24.3849647 L46,24.3849647 L46,34.6849133 C45.7595778,34.6565745 45.5203284,34.6341397 45.281079,34.6223319 C45.0418296,34.6081625 44.8154808,34.5987163 44.6043784,34.5987163 C42.6082877,34.5987163 40.7799062,35.0840171 39.1168882,36.0546187 C37.4562158,37.0204971 36.118061,38.3264404 35.1082877,39.9606406 L23.4988272,39.9606406 C22.809226,39.9606406 22.2169664,40.2145085 21.7255668,40.7269672 C21.2318217,41.2406067 20.9867084,41.8569742 20.9867084,42.5760695 C20.9867084,43.2963456 21.2318217,43.9068092 21.7255668,44.4050985 C22.2169664,44.9033879 22.809226,45.1501711 23.4988272,45.1501711 L33.353792,45.1501711 C33.3268178,45.370977 33.3150899,45.5669866 33.3150899,45.7334766 L33.3150899,46.355748 C33.3150899,47.5991099 33.4863174,48.7869751 33.8322909,49.9075358 C34.1794371,51.0304581 34.6708366,52.0600987 35.308835,53 L21.146208,53 Z M39,14 L44.6028446,14 C44.9606127,14 45.3172867,14.1576776 45.5919037,14.4705882 C45.8632385,14.7908327 46,15.2027502 46,15.6134454 L46,22 L41.7899344,22 C41.0776805,22 40.3621444,21.6822002 39.8172867,21.0551566 C39.2713348,20.4244461 39,19.5981665 39,18.7743316 L39,14 Z M35.0002333,0.000466666667 C15.6697333,0.000466666667 0.000233333333,15.6699667 0.000233333333,35.0004667 C0.000233333333,54.3298 15.6697333,70.0004667 35.0002333,70.0004667 C54.3295667,70.0004667 70.0002333,54.3298 70.0002333,35.0004667 C70.0002333,15.6699667 54.3295667,0.000466666667 35.0002333,0.000466666667 L35.0002333,0.000466666667 Z" id="Fill-5" fill="#74A5E7" mask="url(#mask-2)"></path>
                </g>
            </g>
        </g>
    </g>
</svg>