<?xml version="1.0" encoding="UTF-8"?>
<svg width="65px" height="65px" viewBox="0 0 65 65" version="1.1" xmlns="http://www.w3.org/2000/svg" xmlns:xlink="http://www.w3.org/1999/xlink">
    <!-- Generator: Sketch 46.1 (44463) - http://www.bohemiancoding.com/sketch -->
    <title>8</title>
    <desc>Created with Sketch.</desc>
    <defs>
        <polygon id="path-1" points="65 64.9997636 65 0 0.000236363636 0 0.000236363636 64.9997636 65 64.9997636"></polygon>
    </defs>
    <g id="Template" stroke="none" stroke-width="1" fill="none" fill-rule="evenodd">
        <g id="发起流程-#5" transform="translate(-587.000000, -226.000000)">
            <g id="Page-1" transform="translate(587.000000, 226.000000)">
                <mask id="mask-2" fill="white">
                    <use xlink:href="#path-1"></use>
                </mask>
                <g id="Clip-2"></g>
                <path d="M53.2569242,18.0744283 C46.5656821,24.5285817 29.5628789,42.2111937 29.5628789,42.2111937 L28.7263253,52.0357963 L27.8897717,54 L22.315121,43.6150497 L12,37.721244 L13.9519584,36.8789304 L24.2658928,36.3185827 L30.1205812,30.4235822 L13.6742938,20.8809456 L16.4616191,18.0744283 L38.7614085,21.4412932 C38.7614085,21.4412932 42.9429898,16.9513435 46.5656821,13.3025126 C48.5176405,11.3371141 51.583817,12.1794278 51.583817,12.1794278 L53.2569242,13.864055 C53.2569242,13.864055 54.9288448,16.3898011 53.2569242,18.0744283 L53.2569242,18.0744283 Z M43.7769895,51 L36,36.3333333 L44.0548658,29 L46,48.5559409 L43.7769895,51 Z M32.5002364,-0.000236363636 C14.5507818,-0.000236363636 0.000236363636,14.5503091 0.000236363636,32.4997636 C0.000236363636,50.4492182 14.5507818,64.9997636 32.5002364,64.9997636 C50.4485091,64.9997636 65.0002364,50.4492182 65.0002364,32.4997636 C65.0002364,14.5503091 50.4485091,-0.000236363636 32.5002364,-0.000236363636 L32.5002364,-0.000236363636 Z" id="Fill-1" fill="#31A386" mask="url(#mask-2)"></path>
            </g>
        </g>
    </g>
</svg>