<?xml version="1.0" encoding="UTF-8"?>
<svg width="70px" height="70px" viewBox="0 0 70 70" version="1.1" xmlns="http://www.w3.org/2000/svg" xmlns:xlink="http://www.w3.org/1999/xlink">
    <!-- Generator: Sketch 46.1 (44463) - http://www.bohemiancoding.com/sketch -->
    <title>3</title>
    <desc>Created with Sketch.</desc>
    <defs>
        <polygon id="path-1" points="69.9997667 70 0 70 0 0.000466666667 69.9997667 0.000466666667"></polygon>
    </defs>
    <g id="Template" stroke="none" stroke-width="1" fill="none" fill-rule="evenodd">
        <g id="发起流程-#5" transform="translate(-584.000000, -599.000000)">
            <g id="Page-1" transform="translate(584.000000, 599.000000)">
                <mask id="mask-2" fill="white">
                    <use xlink:href="#path-1"></use>
                </mask>
                <g id="Clip-2"></g>
                <path d="M49.3653542,29 L43.6323923,29 C42.9329187,29 42.261787,28.6839135 41.7686411,28.121731 C41.2743616,27.5584196 40.9977465,26.7952963 41.0000138,25.9994356 C41.0000138,24.3422389 42.1756281,23 43.6323923,23 L49.3653542,23 C50.819851,23 52,24.3309501 52,25.9994356 C52,27.6566322 50.8243857,29 49.3653542,29 L49.3653542,29 Z M49,50.7968594 C49,52.5668881 47.6691687,53.9999882 45.9982085,53.9999882 C45.2004518,54.002296 44.4348528,53.6653674 43.8720942,53.0642038 C43.3093356,52.4618864 42.9927066,51.6461039 43.0001276,50.7968594 L43.0001276,31 L49,31 L49,50.7968594 Z M37.3641702,46 L31.6358298,46 C30.9366437,46 30.2657876,45.6839135 29.7705779,45.121731 C29.2765015,44.5584196 29,43.7952963 29,43.0005644 C29,41.3309501 30.1796642,40 31.6358298,40 L37.3641702,40 C38.8226022,40 40,41.3433678 40,43.0005644 C40,44.6690499 38.8203358,46 37.3641702,46 L37.3641702,46 Z M38,50.8668172 C38,52.6218962 36.6567718,54 35.0006184,54 C33.3308596,54 32,52.5981941 32,50.8668172 L32,48 L38,48 L38,50.8668172 Z M26.3676216,29 L20.6346596,29 C19.9351861,29 19.2640543,28.6839135 18.7686411,28.121731 C18.2743616,27.5584196 17.9977465,26.7952963 18.0000138,25.9994356 C18.0000138,24.3422389 19.1756281,23 20.6346596,23 L26.3676216,23 C27.819851,23 29,24.3309501 29,25.9994356 C29,27.6566322 27.8243857,29 26.3676216,29 L26.3676216,29 Z M27,50.7968468 C27,52.5668743 25.6672289,53.9999736 24.0006469,53.9999736 C23.2019734,54.0034352 22.4366809,53.6665069 21.871675,53.0641898 C21.3091417,52.4630266 20.9951122,51.6460908 21.0000575,50.7968468 L21.0000575,31 L27,31 L27,50.7968468 Z M21,19.1337723 C21,17.4020696 22.3303111,16 24.0006182,16 C25.6548527,16 27,17.3783631 27,19.1337723 L27,22 L21,22 L21,19.1337723 Z M32,19.2031305 C32,17.4088697 33.3432282,16 35.0006184,16 C36.6691404,16 38,17.4331009 38,19.2031305 L38,39 L32,39 L32,19.2031305 Z M43,19.1337723 C43,17.4020696 44.3308596,16 45.9981447,16 C47.6580087,16 49,17.3783631 49,19.1337723 L49,22 L43,22 L43,19.1337723 Z M34.9997667,0.000466666667 C15.6704333,0.000466666667 -0.000233333333,15.6699667 -0.000233333333,35.0004667 C-0.000233333333,54.3298 15.6704333,70.0004667 34.9997667,70.0004667 C54.3302667,70.0004667 69.9997667,54.3298 69.9997667,35.0004667 C69.9997667,15.6699667 54.3302667,0.000466666667 34.9997667,0.000466666667 L34.9997667,0.000466666667 Z" id="Fill-1" fill="#74A5E7" mask="url(#mask-2)"></path>
            </g>
        </g>
    </g>
</svg>