<?xml version="1.0" encoding="UTF-8"?>
<svg width="70px" height="70px" viewBox="0 0 70 70" version="1.1" xmlns="http://www.w3.org/2000/svg" xmlns:xlink="http://www.w3.org/1999/xlink">
    <!-- Generator: Sketch 46.1 (44463) - http://www.bohemiancoding.com/sketch -->
    <title>16</title>
    <desc>Created with Sketch.</desc>
    <defs>
        <polygon id="path-1" points="69.9997667 8.28966525e-15 0 8.28966525e-15 0 69.99965 69.9997667 69.99965 69.9997667 0"></polygon>
    </defs>
    <g id="Template" stroke="none" stroke-width="1" fill="none" fill-rule="evenodd">
        <g id="发起流程-#5" transform="translate(-99.000000, -1253.000000)">
            <g id="16" transform="translate(99.000000, 1253.000000)">
                <path d="M40.5905163,36.1949788 L37.7955404,36.1949788 L37.7955404,33.3842517 C37.7955404,32.6801435 37.7373355,32 37.0343117,32 L32.9645346,32 C32.2603696,32 32.2044473,32.6801435 32.2044473,33.3842517 L32.2044473,36.1949788 L29.4106126,36.1949788 C28.7064476,36.1949788 28,36.2600261 28,36.9641343 L28,41.038148 C28,41.7422563 28.7064476,41.8095859 29.4106126,41.8095859 L32.2055885,41.8095859 L32.2055885,44.6157483 C32.2055885,45.3198565 32.2626521,46 32.9656759,46 L37.0343117,46 C37.7407593,46 37.7955404,45.3198565 37.7955404,44.6157483 L37.7955404,41.8073036 L40.5905163,41.8073036 C41.2946813,41.8073036 41.9999876,41.7422563 41.9999876,41.038148 L41.9999876,36.9641343 C42.0034115,36.2600261 41.2946813,36.1949788 40.5905163,36.1949788" id="Fill-1" fill="#F4A523"></path>
                <path d="M41.1229392,18 L29.8770608,18 C28.6606218,18 28,18.7641154 28,20 L28,22 L43,22 L43,20 C43,18.761606 42.3617522,18 41.1229392,18" id="Fill-3" fill="#F4A523"></path>
                <g id="Group-7">
                    <mask id="mask-2" fill="white">
                        <use xlink:href="#path-1"></use>
                    </mask>
                    <g id="Clip-6"></g>
                    <path d="M56,48.925504 C56,52.8239107 52.6589384,56 48.5522657,56 L22.4477343,56 C18.3398909,56 15,52.8239107 15,48.925504 L15,28.8586603 C15,24.9602536 18.3469149,22.4573125 22.455929,22.4573125 L24.3184479,22.4573125 L24.3184479,20.5912284 C24.3184479,17.7991263 26.9735031,15 29.9083459,15 L41.0904834,15 C44.0276675,15 46.6815521,17.8178573 46.6815521,20.5912284 L46.6815521,22.4573125 L48.5452417,22.4573125 C52.6519145,22.4573125 56,24.9579122 56,28.8586603 L56,48.925504 Z M34.9997667,-0.00035 C15.6704333,-0.00035 -0.000233333333,15.6703167 -0.000233333333,34.99965 C-0.000233333333,54.33015 15.6704333,69.99965 34.9997667,69.99965 C54.3302667,69.99965 69.9997667,54.33015 69.9997667,34.99965 C69.9997667,15.6703167 54.3302667,-0.00035 34.9997667,-0.00035 L34.9997667,-0.00035 Z" id="Fill-5" fill="#F4A523" mask="url(#mask-2)"></path>
                </g>
            </g>
        </g>
    </g>
</svg>