<svg xmlns="http://www.w3.org/2000/svg" viewBox="0 0 100 100"><defs><style>.cls-1,.cls-3{fill:none;}.cls-1,.cls-2,.cls-3{stroke:#979797;stroke-width:2px;}.cls-1,.cls-2{stroke-linecap:round;stroke-linejoin:round;}.cls-2{fill:#dcdcdc;}.cls-3{stroke-miterlimit:10;}</style></defs><title>资源 7</title><g id="图层_2" data-name="图层 2"><g id="图层_1-2" data-name="图层 1"><path class="cls-1" d="M45.73,43.89a4.55,4.55,0,0,1-4.48,4.63H31.09a4.55,4.55,0,0,1-4.48-4.62V33.41a4.55,4.55,0,0,1,4.48-4.63H41.25a4.55,4.55,0,0,1,4.48,4.63Z"/><path class="cls-2" d="M72.07,35.38a4.73,4.73,0,0,1,0,6.54l-7.18,7.41a4.38,4.38,0,0,1-6.34,0l-7.18-7.41a4.73,4.73,0,0,1,0-6.54L58.55,28a4.38,4.38,0,0,1,6.34,0Z"/><path class="cls-1" d="M45.73,68.76a4.55,4.55,0,0,1-4.48,4.63H31.09a4.55,4.55,0,0,1-4.48-4.62V58.28a4.55,4.55,0,0,1,4.48-4.62H41.25a4.55,4.55,0,0,1,4.48,4.63Z"/><path class="cls-1" d="M71.28,68.76a4.56,4.56,0,0,1-4.48,4.63H56.64a4.56,4.56,0,0,1-4.48-4.62V58.28a4.56,4.56,0,0,1,4.48-4.62H66.8a4.56,4.56,0,0,1,4.48,4.63Z"/><circle class="cls-3" cx="50" cy="50" r="49"/></g></g></svg>