<?xml version="1.0" encoding="UTF-8"?>
<svg width="70px" height="70px" viewBox="0 0 70 70" version="1.1" xmlns="http://www.w3.org/2000/svg" xmlns:xlink="http://www.w3.org/1999/xlink">
    <!-- Generator: Sketch 46.1 (44463) - http://www.bohemiancoding.com/sketch -->
    <title>12</title>
    <desc>Created with Sketch.</desc>
    <defs>
        <polygon id="path-1" points="0.00035 0 70 0 70 69.99965 0.00035 69.99965"></polygon>
    </defs>
    <g id="Template" stroke="none" stroke-width="1" fill="none" fill-rule="evenodd">
        <g id="发起流程-#5" transform="translate(-344.000000, -864.000000)">
            <g id="Page-1" transform="translate(344.000000, 864.000000)">
                <mask id="mask-2" fill="white">
                    <use xlink:href="#path-1"></use>
                </mask>
                <g id="Clip-2"></g>
                <path d="M56.9606716,27.9782753 L55.1437064,39.7474463 C54.8665223,41.5372991 53.1717059,43 51.3770563,43 L29.2258185,43 C27.4311689,43 25.7621918,41.5337431 25.5143704,39.7403343 L23.0314586,21.736312 C22.7836372,19.9429032 24.0274422,18.7338636 25.795078,19.0503475 L54.2522541,24.1496499 C56.01989,24.4673191 57.2378557,26.1896079 56.9606716,27.9782753 M50.3841189,48 L22.3144925,48 C22.2757677,48 22.2358694,47.9988266 22.1994915,47.9964797 C21.4414238,48.0422439 20.749071,47.4261867 20.636417,46.5813082 L17.0608253,19.9113105 L11.6147076,19.9113105 C10.7275572,19.9113105 10,19.2565296 10,18.4550685 C10,17.6547808 10.7275572,17 11.6147076,17 L18.0805789,17 C18.1650694,17 18.2519069,17.0046938 18.33053,17.0164282 C19.0510464,17.0258157 19.6905926,17.6242713 19.7985527,18.4327731 L23.3717974,45.0969036 L50.3841189,45.0969036 C51.2724428,45.0969036 52,45.750511 52,46.5484518 C52,47.3475661 51.2724428,48 50.3841189,48 M46.0010885,55 C44.3421626,55 43,53.6566024 43,52.0010913 C43,50.3444889 44.3421626,49 46.0010885,49 C47.6567489,49 49,50.3444889 49,52.0010913 C49,53.6576937 47.6567489,55 46.0010885,55 M27.9983657,55 C26.3412021,55 25,53.6566024 25,52.0010913 C25,50.3444889 26.3412021,49 27.9983657,49 C29.6566188,49 31,50.3444889 31,52.0010913 C31,53.6576937 29.6566188,55 27.9983657,55 M35.00035,-0.00035 C15.66985,-0.00035 0.00035,15.6703167 0.00035,34.99965 C0.00035,54.33015 15.66985,69.99965 35.00035,69.99965 C54.3296833,69.99965 70.00035,54.33015 70.00035,34.99965 C70.00035,15.6703167 54.3296833,-0.00035 35.00035,-0.00035" id="Fill-1" fill="#97C56B" mask="url(#mask-2)"></path>
            </g>
        </g>
    </g>
</svg>