<?xml version="1.0" encoding="UTF-8"?>
<svg width="31px" height="8px" viewBox="0 0 31 8" version="1.1" xmlns="http://www.w3.org/2000/svg" xmlns:xlink="http://www.w3.org/1999/xlink">
    <!-- Generator: Sketch 46.1 (44463) - http://www.bohemiancoding.com/sketch -->
    <title>Icon</title>
    <desc>Created with Sketch.</desc>
    <defs></defs>
    <g id="Template" stroke="none" stroke-width="1" fill="none" fill-rule="evenodd">
        <g id="发起流程-#5" transform="translate(-679.000000, -784.000000)" fill="#CCCCCC">
            <g id="Group" transform="translate(0.000000, 757.000000)">
                <path d="M679,31 C679,30.4385937 679.102272,29.9161818 679.306818,29.4327485 C679.511365,28.9493153 679.791665,28.5282669 680.147727,28.1695906 C680.50379,27.8109144 680.92424,27.5263168 681.409091,27.3157895 C681.893942,27.1052621 682.42424,27 683,27 C683.560609,27 684.083331,27.1052621 684.568182,27.3157895 C685.053033,27.5263168 685.477271,27.8109144 685.840909,28.1695906 C686.204547,28.5282669 686.488635,28.9493153 686.693182,29.4327485 C686.897728,29.9161818 687,30.4385937 687,31 C687,31.5614063 686.897728,32.0877168 686.693182,32.5789474 C686.488635,33.0701779 686.204547,33.4951249 685.840909,33.8538012 C685.477271,34.2124774 685.053033,34.4931764 684.568182,34.6959064 C684.083331,34.8986365 683.560609,35 683,35 C682.42424,35 681.893942,34.8986365 681.409091,34.6959064 C680.92424,34.4931764 680.50379,34.2124774 680.147727,33.8538012 C679.791665,33.4951249 679.511365,33.0701779 679.306818,32.5789474 C679.102272,32.0877168 679,31.5614063 679,31 L679,31 Z M690,31 C690,30.4385937 690.102272,29.9161818 690.306818,29.4327485 C690.511365,28.9493153 690.791665,28.5282669 691.147727,28.1695906 C691.50379,27.8109144 691.92424,27.5263168 692.409091,27.3157895 C692.893942,27.1052621 693.42424,27 694,27 C694.560609,27 695.083331,27.1052621 695.568182,27.3157895 C696.053033,27.5263168 696.477271,27.8109144 696.840909,28.1695906 C697.204547,28.5282669 697.488635,28.9493153 697.693182,29.4327485 C697.897728,29.9161818 698,30.4385937 698,31 C698,31.5614063 697.897728,32.0877168 697.693182,32.5789474 C697.488635,33.0701779 697.204547,33.4951249 696.840909,33.8538012 C696.477271,34.2124774 696.053033,34.4931764 695.568182,34.6959064 C695.083331,34.8986365 694.560609,35 694,35 C693.42424,35 692.893942,34.8986365 692.409091,34.6959064 C691.92424,34.4931764 691.50379,34.2124774 691.147727,33.8538012 C690.791665,33.4951249 690.511365,33.0701779 690.306818,32.5789474 C690.102272,32.0877168 690,31.5614063 690,31 L690,31 Z M702,31 C702,30.4385937 702.102272,29.9161818 702.306818,29.4327485 C702.511365,28.9493153 702.791665,28.5282669 703.147727,28.1695906 C703.50379,27.8109144 703.92424,27.5263168 704.409091,27.3157895 C704.893942,27.1052621 705.42424,27 706,27 C706.560609,27 707.083331,27.1052621 707.568182,27.3157895 C708.053033,27.5263168 708.477271,27.8109144 708.840909,28.1695906 C709.204547,28.5282669 709.488635,28.9493153 709.693182,29.4327485 C709.897728,29.9161818 710,30.4385937 710,31 C710,31.5614063 709.897728,32.0877168 709.693182,32.5789474 C709.488635,33.0701779 709.204547,33.4951249 708.840909,33.8538012 C708.477271,34.2124774 708.053033,34.4931764 707.568182,34.6959064 C707.083331,34.8986365 706.560609,35 706,35 C705.42424,35 704.893942,34.8986365 704.409091,34.6959064 C703.92424,34.4931764 703.50379,34.2124774 703.147727,33.8538012 C702.791665,33.4951249 702.511365,33.0701779 702.306818,32.5789474 C702.102272,32.0877168 702,31.5614063 702,31 L702,31 Z" id="Icon"></path>
            </g>
        </g>
    </g>
</svg>