<?xml version="1.0" encoding="utf-8"?>
<!-- Generator: Adobe Illustrator 19.0.0, SVG Export Plug-In . SVG Version: 6.00 Build 0)  -->
<svg version="1.1" id="图层_1" xmlns="http://www.w3.org/2000/svg" xmlns:xlink="http://www.w3.org/1999/xlink" x="0px" y="0px"
	 viewBox="-225 266.8 291 293" style="enable-background:new -225 266.8 291 293;" xml:space="preserve">
<style type="text/css">
	.st0{fill:#FFB24F;}
	.st1{fill:#FFFFFF;}
</style>
<circle class="st0" cx="-79.5" cy="413.3" r="145.5"/>
<path class="st1" d="M-14.4,493.6h-148.7l-8-5.3l-0.7-1.3c0-0.7-2-7.3,0-14v-0.7l0.7-0.7c4.7-6.7,16.7-13.3,30-20
	c12-6.7,29.3-16,29.3-21.3v-4.7c-11.3-10.7-17.3-25.3-17.3-42c0-25.3,4.7-50.7,40-50.7s40,25.3,40,50.7c0,16-6,30.7-17.3,42v4.7
	c0,5.3,18,14.7,29.3,21.3c12.7,7.3,24.7,14,30,20l0.7,0.7v0.7c2,6.7,0,13.3,0,14l-0.7,1.3L-14.4,493.6z M-160.4,484.9h144l3.3-2
	c0-1.3,0.7-4,0-6.7c-4-4.7-15.3-11.3-26.7-17.3c-18-10-34-18.7-34-28.7v-8.7l1.3-1.3c10-9.3,16-22,16-36.7c0-26.7-5.3-42-31.3-42
	c-26.7,0-31.3,15.3-31.3,42c0,14.7,5.3,27.3,16,36.7l1.3,1.3v8.7c0,10-16,18.7-34,28.7c-11.3,6-22.7,12-26.7,17.3
	c-0.7,2.7,0,5.3,0,6.7L-160.4,484.9L-160.4,484.9z M-34.4,376.9h48v8.7h-48V376.9z M-25.7,407.6h39.3v8.7h-39.3V407.6z M-12.4,438.3
	h26v8.7h-26V438.3z"/>
</svg>
