<?xml version="1.0" encoding="utf-8"?>
<!-- Generator: Adobe Illustrator 19.0.0, SVG Export Plug-In . SVG Version: 6.00 Build 0)  -->
<svg version="1.1" id="图层_1" xmlns="http://www.w3.org/2000/svg" xmlns:xlink="http://www.w3.org/1999/xlink" x="0px" y="0px"
	 viewBox="-330 280 139 41" style="enable-background:new -330 280 139 41;" xml:space="preserve">
<style type="text/css">
	.st0{fill:#FFFFFF;}
	.st1{filter:url(#Adobe_OpacityMaskFilter);}
	.st2{filter:url(#Adobe_OpacityMaskFilter_1_);}
	.st3{mask:url(#SVGID_1_);fill:url(#SVGID_2_);}
</style>
<title>logo</title>
<desc>Created with Sketch.</desc>
<g>
	<path class="st0" d="M-298.2,294.2l0.4-0.1c2.2-1.1,4.5-1.1,4.9-1.1c-12.5-0.2-23.6,5.5-27.3,7.7v-15.7h-9.2V318h0.2l0,0h9.2
		c0-22,29.1-24.4,29.1-24.4C-293.6,293.8-296,294-298.2,294.2z M-300,291.9V285h-9.6v8.8C-307.5,293.1-302,291.8-300,291.9z
		 M-309.3,318h9.3v-21c-2.9,0.6-7.6,3.1-9.3,4.5V318z M-293,293C-293,293-293,293-293,293C-292.9,293-293,293-293,293z"/>
	<path class="st0" d="M-298.2,294.7l0.4-0.1c2.2-1.1,4.5-1.1,4.9-1.1c-12.5-0.2-23.6,5.5-27.3,7.7v-15.7h-9.2v33.2h0.2v0h9.2
		c0-22,29.1-24.4,29.1-24.4C-293.6,294.3-296,294.4-298.2,294.7z M-300,292.3v-6.9h-9.6v8.8C-307.5,293.6-302,292.3-300,292.3z
		 M-309.3,318.5h9.3v-21c-2.9,0.6-7.6,3.1-9.3,4.5V318.5z M-293,293.4C-293,293.4-293,293.4-293,293.4
		C-292.9,293.4-293,293.4-293,293.4z"/>
	<defs>
		<filter id="Adobe_OpacityMaskFilter" filterUnits="userSpaceOnUse" x="-329.5" y="285.4" width="38.4" height="33.2">
			<feColorMatrix  type="matrix" values="1 0 0 0 0  0 1 0 0 0  0 0 1 0 0  0 0 0 1 0"/>
		</filter>
	</defs>
	<mask maskUnits="userSpaceOnUse" x="-329.5" y="285.4" width="38.4" height="33.2" id="SVGID_1_">
		<g class="st1">
			<defs>
				<filter id="Adobe_OpacityMaskFilter_1_" filterUnits="userSpaceOnUse" x="-329.5" y="285.4" width="38.4" height="33.2">
					<feFlood  style="flood-color:white;flood-opacity:1" result="back"/>
					<feBlend  in="SourceGraphic" in2="back" mode="normal"/>
				</filter>
			</defs>
			<mask maskUnits="userSpaceOnUse" x="-329.5" y="285.4" width="38.4" height="33.2" id="SVGID_1_">
				<g class="st2">
				</g>
			</mask>
			<linearGradient id="SVGID_2_" gradientUnits="userSpaceOnUse" x1="-310.2412" y1="325.0309" x2="-310.2412" y2="307.5261">
				<stop  offset="0" style="stop-color:#FFFFFF"/>
				<stop  offset="1" style="stop-color:#000000"/>
			</linearGradient>
			<path class="st3" d="M-298.2,294.7l0.4-0.1c2.2-1.1,4.5-1.1,4.9-1.1c-12.5-0.2-23.6,5.5-27.3,7.7v-15.7h-9.2v33.2h0.2v0h9.2
				c0-22,29.1-24.4,29.1-24.4C-293.6,294.3-296,294.4-298.2,294.7z M-300,292.3v-6.9h-9.6v8.8C-307.5,293.6-302,292.3-300,292.3z
				 M-309.3,318.5h9.3v-21c-2.9,0.6-7.6,3.1-9.3,4.5V318.5z M-293,293.4C-293,293.4-293,293.4-293,293.4
				C-292.9,293.4-293,293.4-293,293.4z"/>
		</g>
	</mask>
	<path class="st0" d="M-298.2,294.7l0.4-0.1c2.2-1.1,4.5-1.1,4.9-1.1c-12.5-0.2-23.6,5.5-27.3,7.7v-15.7h-9.2v33.2h0.2v0h9.2
		c0-22,29.1-24.4,29.1-24.4C-293.6,294.3-296,294.4-298.2,294.7z M-300,292.3v-6.9h-9.6v8.8C-307.5,293.6-302,292.3-300,292.3z
		 M-309.3,318.5h9.3v-21c-2.9,0.6-7.6,3.1-9.3,4.5V318.5z M-293,293.4C-293,293.4-293,293.4-293,293.4
		C-292.9,293.4-293,293.4-293,293.4z"/>
	<path class="st0" d="M-301.3,293.5c0,0,4.8-0.7,7.2-0.5c0,0-5.5,0.3-9.8,1.9L-301.3,293.5z"/>
	<path class="st0" d="M-277.9,291.7c0.4-0.9,0.8-1.5,1-1.8c0.1-0.1,0-0.1-0.1-0.2c-0.4,0-1.4-0.2-2.8-0.7h8v2.5h3.3v-5.2h-8
		c-0.1-0.7-0.1-1.6-0.2-2.7c-1.5,0-2.8,0-4.1,0.1v0.4c0.3,1,0.5,1.7,0.6,2.2h-8.2v5.3h3.2V289h4.5c-0.1,0.9-0.5,2.1-1.1,3.5h-7.4
		v2.7h6.2c-1.5,2.9-3.8,5.3-6.8,7.2c1.1,0.6,2.1,1.2,2.8,1.8c2.9-2,5.4-5,7.6-9h11.8v-2.7h-10.5
		C-278.2,292.5-278.1,292.2-277.9,291.7z M-275.6,299.4c0.6,0.8,1.2,1.7,1.7,2.6c-1.9,0.3-3.5,0.4-4.8,0.4c1.7-2.4,3.1-4.1,4.1-5.1
		c0.1-0.2-0.1-0.4-0.4-0.5c-0.5-0.2-1.2-0.4-2.1-0.7c-0.3-0.1-0.6-0.3-1-0.4c-0.3,0.5-0.5,0.8-0.5,0.9c-0.5,1.2-1.1,2.3-1.7,3.3
		c-0.8,1.1-1.5,1.9-2.2,2.1c-0.1,0.1-0.2,0.1-0.3,0.1c-0.4,0.1-0.7,0.3-0.7,0.4c0.1,0.4,0.2,1.1,0.4,1.8c0.1,0.6,0.2,1.1,0.3,1.3
		c0.1,0.1,0.3,0.1,0.4,0c1.9-0.5,5.1-1,9.8-1.3c0.1,0.4,0.3,0.9,0.5,1.3c0.1,0.2,0.2,0.3,0.3,0.5c1.7-1,2.8-1.6,3.4-1.8
		c-1.7-2.6-3.1-4.8-4.3-6.4C-273.2,298.2-274.2,298.7-275.6,299.4z M-249.5,294.6h8.1v-2.8h-8.4v-4.1h7.1V285h-17v2.7h6.6v4.1h-8.1
		v2.8h7.9c-1,4.2-4,7-8.8,8.5c1.1,0.8,2,1.7,2.6,2.6c4.1-1.7,6.9-4.1,8.3-7.4c1.9,3.4,4.8,5.8,8.9,7.2c0.6-1.3,1.5-2.5,2.5-3.4
		C-244.9,301.3-248.1,298.8-249.5,294.6z M-226.2,297.6c-1.1,0.2-2.3,0.3-3.5,0.4v-2h2.8v-2.4h-2.8v-1.1c0-0.5,0-1,0.1-1.5
		c0.1-0.2,0.1-0.4,0.1-0.5c0-0.2-0.8-0.3-2.3-0.3h-0.6v3.4h-1.5c0-0.1,0.4-1.1,1.2-3.2c0.3-0.8,0.5-1.3,0.6-1.4h5.1v-2.4h-4.2
		c0.3-0.7,0.6-1.4,1.1-2.1c-1-0.4-2-0.7-3.2-1c-0.1,0.6-0.4,1.5-0.8,2.8c-0.1,0.1-0.1,0.2-0.1,0.3h-3.2v2.4h2.4
		c-0.2,0.3-0.4,0.8-0.5,1.5c-0.4,1.3-0.8,2.1-1.2,2.6l-0.3,0.3c-0.3,0.1-0.4,0.2-0.3,0.3c0.1,1.1,0.4,2.1,0.8,2.8
		c1.3-0.1,2.6-0.2,3.8-0.3c0.1,0,0.2,0,0.3-0.1v2.2c-0.5,0.1-1.2,0.2-2.2,0.3c-1.1,0.1-2,0.1-2.9,0.1c0,0.1,0.2,1.2,0.7,3.3
		c1.2-0.4,2.7-0.7,4.4-1v4.7h2.7v-5.2l3.5-0.4V297.6z M-220.6,294v-0.6c0-0.6,0-1.1,0.1-1.5c0.1-0.2,0.1-0.3,0.1-0.4
		c-0.1-0.3-0.6-0.4-1.7-0.5h-1.6v3c0.1,4.7-1.7,8-5.4,10c0.8,0.4,1.7,1.1,2.6,2.1c2.1-1.7,3.7-3.7,4.7-6c1,2.4,2.3,4.3,4.1,5.7
		c0.6-0.8,1.5-1.7,2.6-2.6C-218.6,300.9-220.5,297.8-220.6,294z M-225.6,293.1c0.6-1,1.1-1.9,1.4-2.9h5.1c-0.1,0.6-0.3,1.3-0.6,2.3
		c0.8,0.1,1.9,0.1,3.1,0.2c0.4-1.7,0.8-3.4,1.1-5.2h-7.8c0.4-1.1,1-2.1,1.6-3l-1.2-0.3c-0.8-0.2-1.6-0.4-2.4-0.8
		c-0.6,3.3-1.7,6.1-3.3,8.5C-227.6,292.3-226.7,292.6-225.6,293.1z M-205.6,284.8c0.1-0.2,0-0.4-0.3-0.5c-2-0.5-3.1-0.8-3.3-0.8
		c-0.8,5.1-2.4,8.9-4.7,11.5v0.1c1,0.8,1.7,1.4,2,1.8c0,0.1,0,0.1,0.1,0c0.6-0.7,1.1-1.4,1.5-2v10.6h3v-16.1c0.2-0.7,0.6-2,1.3-4
		C-205.7,285.2-205.6,285-205.6,284.8z M-196.9,295.4v-4.2h4.7v-2.6h-4.7v-2.9c0-0.3,0.1-0.6,0.2-1c0.1-0.3,0.2-0.5,0.1-0.7
		c0.1-0.3-0.7-0.4-2.3-0.4h-1.1v4.9h-1.9c0.1-0.1,0.2-0.5,0.3-1.1c0.1-0.4,0.2-0.7,0.3-0.9c0.1-0.1,0.1-0.2,0-0.3
		c0-0.1-0.1-0.2-0.2-0.2l-2.7-0.6c-0.4,3.1-1.2,5.8-2.3,8c0.8,0.2,1.7,0.5,2.5,1c0.4-0.9,0.9-2,1.4-3.4h2.7v4.2h-6.5v2.7h6.5v7.9h3
		V298h5.9v-2.7H-196.9z"/>
	<polygon class="st0" points="-263.9,315.2 -263.9,312.8 -261.3,312.8 -261.3,315.2 -260.6,315.2 -260.6,310 -261.3,310 
		-261.3,312.1 -263.9,312.1 -263.9,310 -264.6,310 -264.6,315.2 	"/>
	<path class="st0" d="M-256.8,311.9c-0.3-0.3-0.7-0.5-1.3-0.5c-0.5,0-0.9,0.1-1.2,0.4c-0.4,0.3-0.6,0.8-0.6,1.5
		c0,0.6,0.2,1.1,0.5,1.4c0.3,0.3,0.7,0.5,1.3,0.5c0.3,0,0.6-0.1,0.9-0.2c0.3-0.2,0.5-0.4,0.6-0.6c0.1-0.3,0.2-0.7,0.2-1.1
		C-256.3,312.7-256.4,312.2-256.8,311.9z M-257.2,314.4c-0.2,0.2-0.5,0.4-0.8,0.4c-0.3,0-0.6-0.1-0.8-0.4c-0.2-0.2-0.3-0.6-0.3-1.1
		c0-0.5,0.1-0.8,0.3-1.1c0.2-0.2,0.5-0.4,0.8-0.4c0.3,0,0.6,0.1,0.8,0.4c0.2,0.2,0.3,0.6,0.3,1C-256.9,313.8-257,314.1-257.2,314.4z
		"/>
	<path class="st0" d="M-254.4,314.6c-0.1,0-0.2,0-0.2,0c-0.1,0-0.1-0.1-0.1-0.1c0-0.1,0-0.2,0-0.3v-2.2h0.6v-0.5h-0.6v-1.3l-0.6,0.4
		v0.9h-0.5v0.5h0.5v2.1c0,0.4,0,0.6,0.1,0.7c0.1,0.1,0.1,0.2,0.3,0.3c0.1,0.1,0.3,0.1,0.5,0.1c0.1,0,0.3,0,0.5-0.1l-0.1-0.6
		C-254.3,314.6-254.4,314.6-254.4,314.6L-254.4,314.6z"/>
	<path class="st0" d="M-250.3,313.3c0-0.6-0.2-1.1-0.5-1.4c-0.3-0.3-0.7-0.5-1.2-0.5c-0.5,0-0.9,0.2-1.3,0.5
		c-0.3,0.3-0.5,0.8-0.5,1.5c0,0.6,0.2,1.1,0.5,1.4c0.3,0.3,0.8,0.5,1.3,0.5c0.4,0,0.8-0.1,1.1-0.3c0.3-0.2,0.5-0.5,0.6-0.9l-0.7-0.1
		c-0.1,0.3-0.2,0.5-0.4,0.6c-0.2,0.1-0.4,0.2-0.6,0.2c-0.3,0-0.6-0.1-0.8-0.3c-0.2-0.2-0.3-0.5-0.3-0.9h2.8
		C-250.3,313.4-250.3,313.3-250.3,313.3z M-253,313c0-0.3,0.1-0.6,0.3-0.8c0.2-0.2,0.4-0.3,0.7-0.3c0.3,0,0.6,0.1,0.8,0.4
		c0.1,0.2,0.2,0.4,0.2,0.7H-253z"/>
	<path class="st0" d="M-248.9,315.2v-2c0-0.5,0.1-0.8,0.3-1c0.2-0.2,0.4-0.3,0.7-0.3c0.2,0,0.3,0,0.4,0.1c0.1,0.1,0.2,0.2,0.3,0.3
		c0,0.1,0.1,0.3,0.1,0.6v2.3h0.6v-2.3c0-0.3,0-0.5,0-0.6c0-0.2-0.1-0.3-0.2-0.5c-0.1-0.1-0.2-0.2-0.4-0.3c-0.2-0.1-0.4-0.1-0.6-0.1
		c-0.5,0-0.9,0.2-1.2,0.6v-0.5h-0.6v3.7H-248.9z"/>
	<path class="st0" d="M-244.4,314.6c-0.1,0-0.2,0-0.2,0c-0.1,0-0.1-0.1-0.1-0.1c0-0.1,0-0.2,0-0.3v-2.2h0.6v-0.5h-0.6v-1.3l-0.6,0.4
		v0.9h-0.5v0.5h0.5v2.1c0,0.4,0,0.6,0.1,0.7c0.1,0.1,0.1,0.2,0.3,0.3c0.1,0.1,0.3,0.1,0.5,0.1c0.1,0,0.3,0,0.5-0.1l-0.1-0.6
		C-244.3,314.6-244.3,314.6-244.4,314.6L-244.4,314.6z"/>
	<path class="st0" d="M-241.4,314.5c0.2,0.3,0.4,0.5,0.7,0.6c0.3,0.1,0.7,0.2,1.2,0.2c0.4,0,0.7-0.1,1-0.2c0.3-0.1,0.5-0.3,0.7-0.6
		c0.2-0.2,0.2-0.5,0.2-0.8c0-0.3-0.1-0.5-0.2-0.7c-0.1-0.2-0.4-0.4-0.7-0.5c-0.2-0.1-0.6-0.2-1.1-0.3c-0.6-0.1-0.9-0.2-1-0.4
		c-0.1-0.1-0.2-0.3-0.2-0.5c0-0.2,0.1-0.4,0.3-0.5c0.2-0.2,0.5-0.2,0.9-0.2c0.4,0,0.7,0.1,0.9,0.2c0.2,0.2,0.3,0.4,0.4,0.7l0.7,0
		c0-0.3-0.1-0.6-0.3-0.8c-0.2-0.2-0.4-0.4-0.7-0.5c-0.3-0.1-0.6-0.2-1-0.2c-0.3,0-0.7,0.1-0.9,0.2c-0.3,0.1-0.5,0.3-0.6,0.5
		c-0.1,0.2-0.2,0.5-0.2,0.7c0,0.2,0.1,0.5,0.2,0.6c0.1,0.2,0.3,0.4,0.6,0.5c0.2,0.1,0.5,0.2,1,0.3c0.5,0.1,0.8,0.2,0.9,0.3
		c0.2,0.1,0.4,0.2,0.5,0.3c0.1,0.1,0.1,0.3,0.1,0.4c0,0.2,0,0.3-0.1,0.4c-0.1,0.1-0.2,0.2-0.4,0.3c-0.2,0.1-0.4,0.1-0.7,0.1
		c-0.3,0-0.6-0.1-0.8-0.2c-0.2-0.1-0.4-0.2-0.5-0.4c-0.1-0.2-0.2-0.4-0.2-0.6l-0.6,0.1C-241.7,313.9-241.6,314.2-241.4,314.5z"/>
	<path class="st0" d="M-234,311.9c-0.3-0.3-0.7-0.5-1.3-0.5c-0.5,0-0.9,0.1-1.2,0.4c-0.4,0.3-0.6,0.8-0.6,1.5c0,0.6,0.2,1.1,0.5,1.4
		c0.3,0.3,0.7,0.5,1.3,0.5c0.3,0,0.6-0.1,0.9-0.2c0.3-0.2,0.5-0.4,0.6-0.6c0.1-0.3,0.2-0.7,0.2-1.1
		C-233.5,312.7-233.6,312.2-234,311.9z M-234.4,314.4c-0.2,0.2-0.5,0.4-0.8,0.4c-0.3,0-0.6-0.1-0.8-0.4c-0.2-0.2-0.3-0.6-0.3-1.1
		c0-0.5,0.1-0.8,0.3-1.1c0.2-0.2,0.5-0.4,0.8-0.4c0.3,0,0.6,0.1,0.8,0.4c0.2,0.2,0.3,0.6,0.3,1
		C-234.1,313.8-234.2,314.1-234.4,314.4z"/>
	<path class="st0" d="M-231.9,315.2v-3.2h0.7v-0.5h-0.7v-0.3c0-0.2,0-0.4,0.1-0.5c0.1-0.1,0.2-0.1,0.4-0.1c0.1,0,0.2,0,0.4,0
		l0.1-0.6c-0.2,0-0.4-0.1-0.6-0.1c-0.3,0-0.5,0.1-0.6,0.2c-0.2,0.1-0.3,0.2-0.3,0.4c0,0.1-0.1,0.3-0.1,0.6v0.4h-0.6v0.5h0.6v3.2
		H-231.9z"/>
	<path class="st0" d="M-229.6,314.6c-0.1,0-0.2,0-0.2,0c-0.1,0-0.1-0.1-0.1-0.1c0-0.1,0-0.2,0-0.3v-2.2h0.6v-0.5h-0.6v-1.3l-0.6,0.4
		v0.9h-0.5v0.5h0.5v2.1c0,0.4,0,0.6,0.1,0.7c0.1,0.1,0.1,0.2,0.3,0.3c0.1,0.1,0.3,0.1,0.5,0.1c0.1,0,0.3,0,0.5-0.1l-0.1-0.6
		C-229.5,314.6-229.6,314.6-229.6,314.6L-229.6,314.6z"/>
	<path class="st0" d="M-227.4,315.2l0.8-2.9l0.1,0.6l0.6,2.2h0.7l1.2-3.7h-0.6l-0.6,2.2l-0.2,0.7l-0.2-0.7l-0.6-2.2h-0.6l-0.6,2.2
		c-0.1,0.5-0.2,0.7-0.2,0.8l-0.2-0.8l-0.6-2.2h-0.7l1.1,3.7H-227.4z"/>
	<path class="st0" d="M-220.5,314.7c0-0.2,0-0.5,0-1.1v-0.8c0-0.3,0-0.5,0-0.6c0-0.2-0.1-0.3-0.2-0.4c-0.1-0.1-0.2-0.2-0.4-0.3
		c-0.2-0.1-0.5-0.1-0.8-0.1c-0.3,0-0.6,0-0.8,0.1c-0.2,0.1-0.4,0.2-0.6,0.4c-0.1,0.2-0.2,0.4-0.3,0.6l0.6,0.1
		c0.1-0.3,0.2-0.4,0.3-0.6c0.1-0.1,0.4-0.2,0.7-0.2c0.3,0,0.6,0.1,0.7,0.2c0.1,0.1,0.2,0.3,0.2,0.5c0,0,0,0.1,0,0.2
		c-0.2,0.1-0.6,0.2-1.1,0.2c-0.3,0-0.4,0.1-0.6,0.1c-0.2,0-0.3,0.1-0.5,0.2c-0.1,0.1-0.2,0.2-0.3,0.4c-0.1,0.2-0.1,0.3-0.1,0.5
		c0,0.3,0.1,0.6,0.3,0.8c0.2,0.2,0.5,0.3,0.9,0.3c0.2,0,0.5,0,0.7-0.1c0.2-0.1,0.4-0.2,0.7-0.4c0,0.2,0.1,0.3,0.1,0.5h0.7
		C-220.4,315-220.4,314.9-220.5,314.7z M-221.1,313.5c0,0.3,0,0.5-0.1,0.6c-0.1,0.2-0.2,0.3-0.4,0.4c-0.2,0.1-0.4,0.2-0.7,0.2
		c-0.2,0-0.4-0.1-0.6-0.2c-0.1-0.1-0.2-0.3-0.2-0.4c0-0.1,0-0.2,0.1-0.3c0.1-0.1,0.1-0.2,0.2-0.2c0.1,0,0.3-0.1,0.6-0.1
		c0.5-0.1,0.8-0.1,1-0.2V313.5z"/>
	<path class="st0" d="M-218.9,315.2v-2c0-0.3,0-0.5,0.1-0.7c0-0.1,0.1-0.3,0.2-0.3c0.1-0.1,0.2-0.1,0.4-0.1c0.2,0,0.3,0,0.5,0.1
		l0.2-0.6c-0.2-0.1-0.4-0.2-0.6-0.2c-0.1,0-0.3,0-0.4,0.1c-0.1,0.1-0.3,0.3-0.4,0.5v-0.6h-0.6v3.7H-218.9z"/>
	<path class="st0" d="M-213.9,313.3c0-0.6-0.2-1.1-0.5-1.4c-0.3-0.3-0.7-0.5-1.2-0.5c-0.5,0-0.9,0.2-1.3,0.5
		c-0.3,0.3-0.5,0.8-0.5,1.5c0,0.6,0.2,1.1,0.5,1.4c0.3,0.3,0.8,0.5,1.3,0.5c0.4,0,0.8-0.1,1.1-0.3c0.3-0.2,0.5-0.5,0.6-0.9l-0.7-0.1
		c-0.1,0.3-0.2,0.5-0.4,0.6c-0.2,0.1-0.4,0.2-0.6,0.2c-0.3,0-0.6-0.1-0.8-0.3c-0.2-0.2-0.3-0.5-0.3-0.9h2.8
		C-213.9,313.4-213.9,313.3-213.9,313.3z M-216.7,313c0-0.3,0.1-0.6,0.3-0.8c0.2-0.2,0.4-0.3,0.7-0.3c0.3,0,0.6,0.1,0.8,0.4
		c0.1,0.2,0.2,0.4,0.2,0.7H-216.7z"/>
	<path class="st0" d="M-277.9,292.2c0.4-0.9,0.8-1.5,1-1.8c0.1-0.1,0-0.1-0.1-0.2c-0.4,0-1.4-0.2-2.8-0.7h8v2.5h3.3v-5.2h-8
		c-0.1-0.7-0.1-1.6-0.2-2.7c-1.5,0-2.8,0-4.1,0.1v0.4c0.3,1,0.5,1.7,0.6,2.2h-8.2v5.3h3.2v-2.6h4.5c-0.1,0.9-0.5,2.1-1.1,3.5h-7.4
		v2.7h6.2c-1.5,2.9-3.8,5.3-6.8,7.2c1.1,0.6,2.1,1.2,2.8,1.8c2.9-2,5.4-5,7.6-9h11.8V293h-10.5C-278.2,293-278.1,292.7-277.9,292.2z
		 M-275.6,299.8c0.6,0.8,1.2,1.7,1.7,2.6c-1.9,0.3-3.5,0.4-4.8,0.4c1.7-2.4,3.1-4.1,4.1-5.1c0.1-0.2-0.1-0.4-0.4-0.5
		c-0.5-0.2-1.2-0.4-2.1-0.7c-0.3-0.1-0.6-0.3-1-0.4c-0.3,0.5-0.5,0.8-0.5,0.9c-0.5,1.2-1.1,2.3-1.7,3.3c-0.8,1.1-1.5,1.9-2.2,2.1
		c-0.1,0.1-0.2,0.1-0.3,0.1c-0.4,0.1-0.7,0.3-0.7,0.4c0.1,0.4,0.2,1.1,0.4,1.8c0.1,0.6,0.2,1.1,0.3,1.3c0.1,0.1,0.3,0.1,0.4,0
		c1.9-0.5,5.1-1,9.8-1.3c0.1,0.4,0.3,0.9,0.5,1.3c0.1,0.2,0.2,0.4,0.3,0.5c1.7-1,2.8-1.6,3.4-1.8c-1.7-2.6-3.1-4.8-4.3-6.4
		C-273.2,298.7-274.2,299.2-275.6,299.8z M-249.5,295.1h8.1v-2.8h-8.4v-4.1h7.1v-2.7h-17v2.7h6.6v4.1h-8.1v2.8h7.9
		c-1,4.2-4,7-8.8,8.5c1.1,0.8,2,1.7,2.6,2.6c4.1-1.7,6.9-4.1,8.3-7.4c1.9,3.4,4.8,5.8,8.9,7.2c0.6-1.3,1.5-2.5,2.5-3.4
		C-244.9,301.8-248.1,299.3-249.5,295.1z M-226.2,298c-1.1,0.2-2.3,0.3-3.5,0.4v-2h2.8V294h-2.8v-1.1c0-0.5,0-1,0.1-1.5
		c0.1-0.2,0.1-0.4,0.1-0.5c0-0.2-0.8-0.3-2.3-0.3h-0.6v3.4h-1.5c0-0.1,0.4-1.1,1.2-3.2c0.3-0.8,0.5-1.3,0.6-1.4h5.1V287h-4.2
		c0.3-0.7,0.6-1.4,1.1-2.1c-1-0.4-2-0.7-3.2-1c-0.1,0.6-0.4,1.5-0.8,2.8c-0.1,0.1-0.1,0.2-0.1,0.3h-3.2v2.4h2.4
		c-0.2,0.3-0.4,0.8-0.5,1.5c-0.4,1.3-0.8,2.1-1.2,2.6l-0.3,0.3c-0.3,0.1-0.4,0.2-0.3,0.3c0.1,1.1,0.4,2.1,0.8,2.8
		c1.3-0.1,2.6-0.2,3.8-0.3c0.1,0,0.2,0,0.3-0.1v2.2c-0.5,0.1-1.2,0.2-2.2,0.3c-1.1,0.1-2,0.1-2.9,0.1c0,0.1,0.2,1.2,0.7,3.3
		c1.2-0.4,2.7-0.7,4.4-1v4.7h2.7v-5.2l3.5-0.4V298z M-220.6,294.5v-0.6c0-0.6,0-1.1,0.1-1.5c0.1-0.2,0.1-0.3,0.1-0.4
		c-0.1-0.3-0.6-0.4-1.7-0.5h-1.6v3c0.1,4.7-1.7,8-5.4,10c0.8,0.4,1.7,1.1,2.6,2.1c2.1-1.7,3.7-3.7,4.7-6c1,2.4,2.3,4.3,4.1,5.7
		c0.6-0.8,1.5-1.7,2.6-2.6C-218.6,301.4-220.5,298.3-220.6,294.5z M-225.6,293.5c0.6-1,1.1-1.9,1.4-2.9h5.1
		c-0.1,0.6-0.3,1.3-0.6,2.3c0.8,0.1,1.9,0.1,3.1,0.2c0.4-1.7,0.8-3.4,1.1-5.2h-7.8c0.4-1.1,1-2.1,1.6-3l-1.2-0.3
		c-0.8-0.2-1.6-0.4-2.4-0.8c-0.6,3.3-1.7,6.1-3.3,8.5C-227.6,292.7-226.7,293.1-225.6,293.5z M-205.6,285.3c0.1-0.2,0-0.3-0.3-0.5
		c-2-0.5-3.1-0.8-3.3-0.8c-0.8,5.1-2.4,8.9-4.7,11.5v0.1c1,0.8,1.7,1.4,2,1.8c0,0.1,0,0.1,0.1,0c0.6-0.7,1.1-1.4,1.5-2v10.6h3V290
		c0.2-0.7,0.6-2,1.3-4C-205.7,285.7-205.6,285.5-205.6,285.3z M-196.9,295.8v-4.2h4.7V289h-4.7v-2.9c0-0.3,0.1-0.6,0.2-1
		c0.1-0.3,0.2-0.5,0.1-0.7c0.1-0.3-0.7-0.4-2.3-0.4h-1.1v4.9h-1.9c0.1-0.1,0.2-0.5,0.3-1.1c0.1-0.4,0.2-0.7,0.3-0.9
		c0.1-0.1,0.1-0.2,0-0.3c0-0.1-0.1-0.2-0.2-0.2l-2.7-0.6c-0.4,3.1-1.2,5.8-2.3,8c0.8,0.2,1.7,0.5,2.5,1c0.4-0.9,0.9-2,1.4-3.4h2.7
		v4.2h-6.5v2.7h6.5v7.9h3v-7.9h5.9v-2.7H-196.9z"/>
</g>
</svg>
